<?xml version="1.0" encoding="UTF-8"?>
<svg version="1.1" xmlns="http://www.w3.org/2000/svg" width="2000" height="605">
<path d="M0 0 C9.8936389 9.20524655 9.8936389 9.20524655 11.4140625 12.24609375 C11.7440625 3.00609375 12.0740625 -6.23390625 12.4140625 -15.75390625 C28.5840625 -15.75390625 44.7540625 -15.75390625 61.4140625 -15.75390625 C61.4140625 57.17609375 61.4140625 130.10609375 61.4140625 205.24609375 C45.2440625 205.24609375 29.0740625 205.24609375 12.4140625 205.24609375 C12.0840625 196.00609375 11.7540625 186.76609375 11.4140625 177.24609375 C8.4440625 180.54609375 5.4740625 183.84609375 2.4140625 187.24609375 C-16.15686935 205.18571913 -40.71867931 211.64438007 -65.98022461 211.54882812 C-92.57773593 211.00401424 -116.71062618 200.65915144 -136.5859375 183.24609375 C-137.40449219 182.529375 -138.22304688 181.81265625 -139.06640625 181.07421875 C-150.37215809 170.42880285 -158.31492741 157.32069845 -164.5859375 143.24609375 C-165.06804688 142.19164062 -165.55015625 141.1371875 -166.046875 140.05078125 C-175.74184698 117.07663552 -177.41215256 87.24794672 -170.5859375 63.24609375 C-170.245625 62.01890625 -169.9053125 60.79171875 -169.5546875 59.52734375 C-160.83826184 31.02227607 -142.06282004 5.85394745 -115.796875 -8.62817383 C-79.87213878 -27.59176502 -31.71224868 -27.64043427 0 0 Z M-109.5859375 48.24609375 C-121.65169604 63.35424707 -126.94567139 82.01557164 -125.5859375 101.24609375 C-123.30612541 120.30838808 -115.68043186 137.78228115 -100.5859375 150.24609375 C-83.97497131 162.22924029 -64.9189313 167.30165967 -44.5859375 164.24609375 C-25.52651491 160.59683906 -9.77991436 151.19052094 1.48046875 135.2734375 C4.36885478 130.75121695 6.58951818 126.29042217 8.4140625 121.24609375 C8.8059375 120.17359375 9.1978125 119.10109375 9.6015625 117.99609375 C15.58646907 99.0438896 13.49738651 78.93257162 5.3515625 60.99609375 C1.44058061 53.62830852 -3.67175222 48.02727636 -9.5859375 42.24609375 C-10.14667969 41.653125 -10.70742188 41.06015625 -11.28515625 40.44921875 C-23.90387437 28.12858058 -42.48985233 24.71428215 -59.35424805 24.828125 C-78.73105765 25.35876934 -96.84944785 33.49589316 -109.5859375 48.24609375 Z " fill="#FFFFFF" transform="translate(703.5859375,61.75390625)"/>
<path d="M0 0 C23.01230079 20.36923408 38.16485669 48.48052804 40.59423828 79.41113281 C41.08475145 90.51308081 40.82150145 101.36576428 39.59423828 112.41113281 C-47.03076172 112.90613281 -47.03076172 112.90613281 -135.40576172 113.41113281 C-129.34383788 131.59690434 -121.75343301 145.30837123 -104.40576172 154.41113281 C-100.47899635 156.34284803 -96.53636396 157.96727313 -92.40576172 159.41113281 C-91.49181641 159.73210937 -90.57787109 160.05308594 -89.63623047 160.38378906 C-69.47774041 166.18576411 -47.12417726 163.17423847 -28.78076172 153.54394531 C-21.70951183 149.07530823 -15.21802842 143.28350031 -10.40576172 136.41113281 C-4.27953888 138.02706471 0.78277248 141.29410529 6.15673828 144.53613281 C7.12949707 145.11709717 8.10225586 145.69806152 9.10449219 146.29663086 C16.30546722 150.60656815 23.47608683 154.96564578 30.59423828 159.41113281 C19.2177781 181.0014952 -3.41385354 195.58364571 -26.08935547 203.00878906 C-60.12800704 213.38050676 -97.54432972 210.05429076 -129.40576172 194.41113281 C-156.80423428 179.10553022 -174.80364007 155.06322194 -183.40966797 125.20019531 C-184.78579437 119.96551841 -185.7597222 114.7822753 -186.40576172 109.41113281 C-186.51662109 108.49976563 -186.62748047 107.58839844 -186.74169922 106.64941406 C-190.03557631 75.44660539 -182.72414773 43.41673987 -163.40576172 18.41113281 C-143.01261696 -6.59414466 -115.46195105 -20.81162063 -83.4597168 -24.12207031 C-53.60797964 -26.77338739 -23.06843151 -19.83870724 0 0 Z M-120.40576172 39.41113281 C-128.92798098 49.85217473 -133.75076543 60.13615137 -136.40576172 73.41113281 C-94.16576172 73.41113281 -51.92576172 73.41113281 -8.40576172 73.41113281 C-10.78184169 61.53073296 -14.1502569 52.09140478 -21.40576172 42.41113281 C-21.82083984 41.81945312 -22.23591797 41.22777344 -22.66357422 40.61816406 C-31.37109931 29.22538422 -45.60051489 22.82468227 -59.40576172 20.41113281 C-82.7752282 18.77792834 -103.17126211 22.35509696 -120.40576172 39.41113281 Z " fill="#FFFFFF" transform="translate(1346.40576171875,64.5888671875)"/>
<path d="M0 0 C1.45082977 0.00081573 1.45082977 0.00081573 2.93096924 0.00164795 C18.48611964 0.04176584 33.40885953 0.87893275 48.625 4.375 C49.56843262 4.58930664 50.51186523 4.80361328 51.48388672 5.02441406 C84.22013536 12.71455009 115.2408034 27.13322002 140.625 49.375 C141.42679687 50.06722656 142.22859375 50.75945313 143.0546875 51.47265625 C154.4346052 61.48916528 164.85145845 71.99258468 173.625 84.375 C174.0384668 84.95475586 174.45193359 85.53451172 174.87792969 86.13183594 C186.16097683 102.09808481 194.25523214 118.90991159 200.625 137.375 C200.87765625 138.10686523 201.1303125 138.83873047 201.390625 139.59277344 C206.83706985 155.75812434 210.16571721 173.3216302 210.625 190.375 C210.64546387 191.08624023 210.66592773 191.79748047 210.68701172 192.53027344 C210.74861281 194.9994081 210.78476893 197.46776129 210.8125 199.9375 C210.82571289 200.67379639 210.83892578 201.41009277 210.85253906 202.16870117 C210.87568217 220.61568978 207.25653687 238.62228879 203.625 256.625 C199.73341543 276.0386374 196.18992625 294.83182117 196.25 314.6875 C196.25087616 315.40456116 196.25175232 316.12162231 196.25265503 316.8604126 C196.34957547 341.02210928 203.74640111 361.25555378 213.60424805 383.08349609 C217.97736459 392.94503363 220.35231921 401.99519509 216.49609375 412.4296875 C210.37607753 425.8036739 200.40769688 430.38872921 187.625 436.375 C185.91500105 437.18526332 184.2050211 437.99556703 182.49539185 438.80661011 C168.26765974 445.55117996 153.9742425 452.14347588 139.625 458.625 C127.24622259 464.2170364 114.95000561 469.97005321 102.6875 475.8125 C101.4224614 476.4151619 101.4224614 476.4151619 100.13186646 477.02999878 C96.75019841 478.64141665 93.36880337 480.25340577 89.98771667 481.86604309 C70.47953692 491.16925026 50.93380675 500.38596378 31.25 509.3125 C30.58225555 509.61644684 29.91451111 509.92039368 29.22653198 510.23355103 C27.35320803 511.08522638 25.47780753 511.93212649 23.6015625 512.77734375 C22.00948975 513.49651978 22.00948975 513.49651978 20.38525391 514.23022461 C12.01072712 517.70343849 0.7059003 517.90905665 -7.875 514.875 C-17.14853366 510.20577894 -21.95042648 502.37438137 -26.375 493.3125 C-27.41386897 491.26031869 -28.45293153 489.20823536 -29.4921875 487.15625 C-30.45370525 485.22945612 -31.41469038 483.3023963 -32.375 481.375 C-50.4512956 445.43596841 -78.5345683 425.97199958 -113.375 407.375 C-136.53983332 395.00385297 -157.44626456 381.68142085 -176.375 363.375 C-177.17164063 362.62992187 -177.96828125 361.88484375 -178.7890625 361.1171875 C-211.45908237 329.83246882 -232.27984287 281.90785272 -233.76019287 236.82469177 C-233.84200483 232.61135019 -233.84345078 228.40138404 -233.8125 224.1875 C-233.80945862 223.30002075 -233.80641724 222.4125415 -233.80328369 221.49816895 C-233.58946099 179.0890503 -220.62830857 135.82839868 -195.375 101.375 C-194.9531543 100.78235352 -194.53130859 100.18970703 -194.09667969 99.57910156 C-186.61450952 89.0703171 -178.37019199 79.6081311 -169.375 70.375 C-168.47652344 69.4365625 -167.57804687 68.498125 -166.65234375 67.53125 C-160.92791776 61.65260018 -154.8619862 56.39529035 -148.375 51.375 C-147.55370605 50.73908936 -147.55370605 50.73908936 -146.71582031 50.09033203 C-104.20377172 17.42456083 -53.55116562 -0.11359929 0 0 Z M-45.375 20.375 C-46.21530762 20.56223633 -47.05561523 20.74947266 -47.92138672 20.94238281 C-53.47421897 22.20791711 -58.93183258 23.70186222 -64.375 25.375 C-65.16116699 25.61557129 -65.94733398 25.85614258 -66.75732422 26.10400391 C-93.31573446 34.4151989 -117.9163361 47.65920321 -139.375 65.375 C-139.94557129 65.84405762 -140.51614258 66.31311523 -141.10400391 66.79638672 C-153.041837 76.67024758 -163.77688825 87.16687541 -173.375 99.375 C-174.13039062 100.27863281 -174.88578125 101.18226562 -175.6640625 102.11328125 C-194.23130157 124.94433255 -206.72125639 152.82285969 -213.375 181.375 C-213.58382812 182.24898437 -213.79265625 183.12296875 -214.0078125 184.0234375 C-219.53758168 208.1724295 -220.45068416 237.20119033 -214.375 261.375 C-214.06103271 262.64053711 -214.06103271 262.64053711 -213.74072266 263.93164062 C-201.62720841 311.49411554 -172.87289356 353.51210978 -130.50830078 379.10693359 C-121.15951686 384.54785595 -111.62543104 389.65224819 -102.07421875 394.7265625 C-89.69136317 401.31914158 -77.77180959 408.17719587 -66.375 416.375 C-65.45267578 417.03483887 -65.45267578 417.03483887 -64.51171875 417.70800781 C-42.45940154 433.69473669 -27.36653127 453.76032166 -15.57421875 478.109375 C-14.85468018 479.58772827 -14.85468018 479.58772827 -14.12060547 481.09594727 C-13.18509835 483.03246294 -12.26289221 484.97547682 -11.35595703 486.92553711 C-8.39081658 493.08488703 -5.65007716 497.23746142 0.625 500.375 C9.78910865 502.35919317 17.76968646 497.59436388 25.75683594 493.74853516 C28.89123363 492.24750337 32.04122153 490.78340513 35.1953125 489.32421875 C49.85785514 482.53355736 64.46359365 475.62224338 79.07138062 468.71481323 C92.22788674 462.49467169 105.41235166 456.33816312 118.62060547 450.22851562 C123.29164175 448.06725675 127.96017029 445.90059727 132.62890625 443.734375 C135.30966389 442.49091552 137.99045833 441.24753542 140.67126465 440.00418091 C142.46684606 439.1712651 144.26233831 438.33815704 146.05773926 437.50485229 C154.43582026 433.61659548 162.81370808 429.72974064 171.23046875 425.92578125 C172.32327148 425.43094238 173.41607422 424.93610352 174.54199219 424.42626953 C176.45815836 423.561114 178.3765332 422.70082049 180.29785156 421.84716797 C192.98175665 416.45014186 192.98175665 416.45014186 201.625 406.375 C202.99586033 401.31724687 202.1289143 397.89769991 200.1875 393.1875 C199.78349976 392.15689453 199.78349976 392.15689453 199.37133789 391.10546875 C197.53105338 386.46027223 195.56243219 381.87076265 193.59228516 377.27954102 C184.88318689 356.94385851 179.99493785 337.24445596 180.1875 315.0625 C180.19120605 314.28442993 180.19491211 313.50635986 180.19873047 312.70471191 C180.35833063 288.90373381 184.857919 266.0386095 189.80664062 242.84277344 C200.13121946 193.86180735 192.94721524 144.65593607 165.8984375 101.99609375 C138.5354542 60.32502326 95.11454097 31.07048333 46.46875 20.37109375 C44.85466535 20.03664667 43.24009162 19.70454994 41.625 19.375 C40.51511719 19.13160889 40.51511719 19.13160889 39.3828125 18.88330078 C12.51529673 13.17395368 -18.70527019 14.24621111 -45.375 20.375 Z " fill="#FFFFFF" transform="translate(233.375,-0.375)"/>
<path d="M0 0 C6.3709407 6.17654307 12.26642482 12.86505571 16 21 C16 21.99 16 22.98 16 24 C15.03513672 24.52001587 15.03513672 24.52001587 14.05078125 25.05053711 C1.3044754 31.92485987 -11.41343121 38.83676159 -24 46 C-26.36382429 43.08562689 -28.60870294 40.14218901 -30.75 37.0625 C-36.82047015 28.98375401 -45.96168756 23.46767051 -56 22 C-68.32094497 21.17381419 -79.09069793 21.28807536 -89.9375 27.75 C-94.12462217 32.31776964 -96.22486905 36.8293609 -96.5 43.0625 C-96.25492829 47.91194935 -95.28255396 51.36766569 -92 55 C-80.06619005 65.6226963 -61.64011152 69.01889237 -46.6184082 73.10180664 C-35.263374 76.20421905 -24.64474899 79.9646069 -14 85 C-12.95690674 85.49193848 -11.91381348 85.98387695 -10.83911133 86.49072266 C3.00606488 93.22466126 13.3292553 104.81940352 18.375 119.3125 C23.70434091 136.29687777 22.31130779 155.77415812 14.4375 171.75 C3.48798614 190.06354459 -14.54547263 200.58202928 -34.73046875 205.96484375 C-64.74995385 213.47139209 -98.20964015 209.62499724 -125 194 C-128.5704742 191.56212288 -131.80018342 188.90363521 -135 186 C-135.83144531 185.26136719 -136.66289063 184.52273437 -137.51953125 183.76171875 C-145.7731461 176.01523846 -152.55629747 166.85069706 -156 156 C-155.21463867 155.55197021 -154.42927734 155.10394043 -153.62011719 154.64233398 C-150.64524653 152.94487436 -147.67067451 151.24689358 -144.69628906 149.54858398 C-143.42036264 148.82019197 -142.14432491 148.09199489 -140.86816406 147.36401367 C-139.62837701 146.65674933 -138.3887528 145.94919945 -137.14929199 145.24136353 C-135.91441705 144.53622349 -134.67914652 143.83177576 -133.44348145 143.12802124 C-130.44657552 141.41717229 -127.46399376 139.68780774 -124.50585938 137.91064453 C-123.43658203 137.2711084 -122.36730469 136.63157227 -121.265625 135.97265625 C-119.84685059 135.11232788 -119.84685059 135.11232788 -118.39941406 134.23461914 C-116 133 -116 133 -113 133 C-112.67128906 133.76183594 -112.34257813 134.52367187 -112.00390625 135.30859375 C-105.88172087 148.59821567 -97.4532246 155.62168983 -84 161 C-77.70511491 162.95245917 -71.88616774 163.386381 -65.3125 163.375 C-64.34441406 163.37338867 -63.37632813 163.37177734 -62.37890625 163.37011719 C-51.11818865 163.17817314 -40.92982997 160.92982997 -32.75 152.75 C-29.7640737 148.0578301 -28.90611746 143.84635669 -29.1875 138.3125 C-30.82009631 131.65653042 -34.45066555 127.77245115 -40 124 C-50.80331112 118.53836836 -62.34785206 115.32338266 -73.9375 112 C-116.42954388 99.79014509 -116.42954388 99.79014509 -132 84 C-132.65871094 83.35160156 -133.31742188 82.70320313 -133.99609375 82.03515625 C-143.71552155 71.81408056 -147.01969396 57.79514308 -147.375 44 C-146.86655258 26.43900847 -140.66907421 10.07417396 -128.0390625 -2.31640625 C-93.28983847 -34.09590288 -34.1297572 -30.27278069 0 0 Z " fill="#FFFFFF" transform="translate(1717,64)"/>
<path d="M0 0 C1.66456781 1.45805192 3.31253825 2.93543452 4.9375 4.4375 C5.59105469 5.02273437 6.24460937 5.60796875 6.91796875 6.2109375 C11.71333425 10.72048651 15.31384131 15.9685481 18.9375 21.4375 C19.5975 22.4275 20.2575 23.4175 20.9375 24.4375 C20.9375 25.7575 20.9375 27.0775 20.9375 28.4375 C20.11137207 28.8907666 19.28524414 29.3440332 18.43408203 29.81103516 C15.32075787 31.52042224 12.20841285 33.23156723 9.09667969 34.94384766 C7.75884189 35.67956211 6.42063586 36.41460743 5.08203125 37.14892578 C3.13961043 38.2146402 1.19831372 39.28235698 -0.7421875 40.3515625 C-1.37340515 40.69930725 -2.0046228 41.047052 -2.65496826 41.40533447 C-7.25218805 43.95291484 -11.75644699 46.62911662 -16.21142578 49.41943359 C-18.0625 50.4375 -18.0625 50.4375 -20.0625 50.4375 C-20.97735873 48.97372604 -21.8183052 47.46355511 -22.625 45.9375 C-28.41776626 36.04502236 -36.94983461 30.0627423 -47.94384766 26.89550781 C-58.39440721 24.63631794 -71.6793684 25.20325308 -81.0625 30.4375 C-81.7740625 30.97761719 -82.485625 31.51773438 -83.21875 32.07421875 C-85.0625 33.4375 -85.0625 33.4375 -87.0625 33.4375 C-87.74870031 34.76088632 -88.41036461 36.09699948 -89.0625 37.4375 C-89.43375 38.13875 -89.805 38.84 -90.1875 39.5625 C-91.72067717 44.60008213 -92.04090524 49.62148086 -90.29296875 54.65234375 C-85.28319557 63.87528306 -74.5828382 67.34133451 -65.125 70.3125 C-64.09866455 70.64636719 -63.0723291 70.98023438 -62.01489258 71.32421875 C-55.27954605 73.49138004 -48.5001387 75.48522627 -41.70117188 77.44189453 C-18.18458885 84.22603612 6.88347873 92.07377741 19.65625 114.81640625 C27.03823502 129.91796706 29.10292823 149.53312967 24.03515625 165.75 C19.93938857 175.77807175 14.65619873 183.84351992 6.9375 191.4375 C6.37417969 191.99953125 5.81085938 192.5615625 5.23046875 193.140625 C-14.37366038 211.26609719 -43.6938727 214.59188867 -69.16308594 213.60595703 C-91.98726012 212.27986405 -113.91242441 204.87867126 -131.0625 189.4375 C-132.08730469 188.55191406 -132.08730469 188.55191406 -133.1328125 187.6484375 C-139.42196984 181.8525474 -143.72868921 174.73844266 -148.0625 167.4375 C-148.49820312 166.72078125 -148.93390625 166.0040625 -149.3828125 165.265625 C-150.30410239 162.78767288 -150.10983835 161.87407292 -149.0625 159.4375 C-146.53735352 157.60986328 -146.53735352 157.60986328 -143.19140625 155.7578125 C-142.59504868 155.42256561 -141.9986911 155.08731873 -141.38426208 154.74191284 C-139.47110512 153.6697401 -137.54861392 152.61577564 -135.625 151.5625 C-133.74152667 150.51561504 -131.86012076 149.46508465 -129.97885132 148.41424561 C-128.75011928 147.72916856 -127.52000162 147.04657057 -126.28848267 146.36651611 C-121.77898107 143.87038516 -117.38225569 141.22592906 -113.03100586 138.46435547 C-111.0625 137.4375 -111.0625 137.4375 -108.0625 137.4375 C-107.65 138.283125 -107.2375 139.12875 -106.8125 140 C-100.20944531 152.97028599 -92.69025809 160.05620812 -79.0625 165.4375 C-72.62851849 167.37509157 -66.3779332 167.79153272 -59.6875 167.75 C-58.76501465 167.74581055 -57.8425293 167.74162109 -56.89208984 167.73730469 C-47.04371278 167.5739471 -37.06014741 166.08328542 -29.59765625 159.05859375 C-25.71122216 154.74408866 -24.31840885 150.74067968 -23.6875 145.0625 C-24.25299178 139.59607942 -25.7577684 135.51322021 -29.91015625 131.7734375 C-42.49769379 122.86392817 -58.40115149 119.50557263 -72.9921875 115.32055664 C-96.39717332 108.58219894 -121.42544865 100.39616962 -134.9375 78.5625 C-143.43724043 62.92061657 -143.59156861 45.31050071 -139.0625 28.4375 C-134.06865163 11.81829612 -122.36672327 -0.12749917 -107.61328125 -8.59375 C-74.72555465 -25.97673651 -29.46715657 -23.63008321 0 0 Z " fill="#FFFFFF" transform="translate(1533.0625,59.5625)"/>
<path d="M0 0 C6.60757283 5.39809419 11.77629704 12.38943811 14.71484375 20.40625 C15.9471875 20.49261719 17.17953125 20.57898438 18.44921875 20.66796875 C34.6566559 21.97348585 48.64218412 26.24089447 60.08984375 38.45703125 C67.96325035 47.90133387 72.62961918 60.8855751 71.984375 73.3125 C71.32158548 78.46112586 70.35717852 83.47924568 68.71484375 88.40625 C69.51921875 88.6125 70.32359375 88.81875 71.15234375 89.03125 C83.40033754 93.75854585 91.23146801 102.71655791 97.26953125 114.0625 C102.55812356 126.29772979 102.49197527 140.94286553 98.0546875 153.43359375 C94.89508402 160.44367612 90.55031011 166.46795798 85.71484375 172.40625 C85.99199219 173.08171875 86.26914062 173.7571875 86.5546875 174.453125 C86.91691406 175.34515625 87.27914063 176.2371875 87.65234375 177.15625 C88.01199219 178.03796875 88.37164062 178.9196875 88.7421875 179.828125 C92.7152591 190.35915815 92.16542004 204.28462879 88.0390625 214.63671875 C80.6844137 230.01856537 71.37208239 240.04199172 55.43359375 246.796875 C42.90422921 250.9538137 29.40591209 250.67832785 16.71484375 247.40625 C16.50859375 248.210625 16.30234375 249.015 16.08984375 249.84375 C11.01897915 262.98189918 0.25540951 272.52452657 -12.28515625 278.40625 C-26.8641647 284.33609941 -42.75831902 284.52281304 -57.28515625 278.40625 C-69.31962907 273.17721389 -77.72644154 264.20471401 -83.28515625 252.40625 C-83.28515625 251.74625 -83.28515625 251.08625 -83.28515625 250.40625 C-84.21714844 250.45265625 -85.14914063 250.4990625 -86.109375 250.546875 C-101.89918479 250.99390703 -114.70379052 246.71800918 -126.47265625 235.90625 C-136.37857589 225.54793403 -140.77834091 212.51293887 -140.5546875 198.30078125 C-140.07888155 193.19103913 -138.72551159 188.31889055 -137.28515625 183.40625 C-138.38537109 183.24382812 -138.38537109 183.24382812 -139.5078125 183.078125 C-144.10418086 181.96620466 -147.50019098 179.14917332 -151.28515625 176.40625 C-152.83203125 175.2925 -152.83203125 175.2925 -154.41015625 174.15625 C-163.66206914 165.30659419 -169.28230118 153.75771725 -169.57788086 140.95898438 C-169.71151864 124.13052284 -164.91651324 112.46230244 -154.28515625 99.40625 C-154.56230469 98.80296875 -154.83945313 98.1996875 -155.125 97.578125 C-155.48722656 96.77890625 -155.84945312 95.9796875 -156.22265625 95.15625 C-156.58230469 94.36734375 -156.94195312 93.5784375 -157.3125 92.765625 C-161.27469104 83.15452705 -160.97401022 68.25617087 -157.31640625 58.62109375 C-156.97609375 57.89019531 -156.63578125 57.15929687 -156.28515625 56.40625 C-155.681875 55.07787109 -155.681875 55.07787109 -155.06640625 53.72265625 C-147.50750274 38.58385228 -135.10076837 29.22244944 -119.32421875 23.72265625 C-108.97952737 20.84913087 -96.5038019 21.43355308 -86.28515625 24.40625 C-85.95644531 23.72820312 -85.62773437 23.05015625 -85.2890625 22.3515625 C-77.03047354 6.19248058 -65.09842333 -3.63014218 -48.046875 -9.34375 C-31.51614125 -13.82666085 -13.82787063 -9.64405336 0 0 Z M-68.66015625 15.78125 C-72.48115303 20.66054034 -76.29779601 26.11569964 -76.2734375 32.45703125 C-75.1958829 38.21586725 -72.13368074 43.40566531 -69.53515625 48.59375 C-68.35495692 50.99522787 -67.17656227 53.39752604 -66 55.80078125 C-65.54478218 56.72703308 -65.54478218 56.72703308 -65.08036804 57.67199707 C-61.65193944 64.66148185 -58.36928311 71.71736158 -55.09765625 78.78125 C-54.54561523 79.96871826 -53.99357422 81.15618652 -53.42480469 82.37963867 C-51.27463056 87.02138604 -49.14763522 91.64025577 -47.28515625 96.40625 C-45.82621365 95.92894162 -44.36802129 95.44933958 -42.91015625 94.96875 C-42.09804687 94.70191406 -41.2859375 94.43507813 -40.44921875 94.16015625 C-38.27483826 93.45445271 -38.27483826 93.45445271 -36.28515625 92.40625 C-35.70541187 90.22287993 -35.70541187 90.22287993 -35.34765625 87.65625 C-34.24617583 81.79837687 -33.1308616 78.73515785 -28.16015625 75.15625 C-23.35193639 72.67622081 -18.40294334 71.73421815 -13.07421875 72.8828125 C-8.21293872 74.52733474 -4.89730218 76.71934011 -2.20703125 81.203125 C-0.23287825 85.92101608 -0.45315452 91.68605272 -1.9375 96.5390625 C-4.22055674 101.06598187 -7.61325612 103.70486905 -12.28515625 105.40625 C-18.796729 107.10441196 -23.25772261 106.06736861 -29.28515625 103.40625 C-34.19505891 101.72969787 -36.79779866 103.20656491 -41.28515625 105.40625 C-40.72914976 109.68970506 -39.71569018 113.04978438 -37.80078125 116.9140625 C-37.28459229 117.96827393 -36.76840332 119.02248535 -36.23657227 120.10864258 C-35.67510498 121.23810303 -35.1136377 122.36756348 -34.53515625 123.53125 C-33.33718153 125.97332838 -32.14527346 128.41835446 -30.953125 130.86328125 C-30.64716904 131.48903549 -30.34121307 132.11478973 -30.02598572 132.75950623 C-26.87997638 139.20581366 -23.85511239 145.70676434 -20.84765625 152.21875 C-19.77605191 154.53646307 -18.70443719 156.85417134 -17.6328125 159.171875 C-17.09156738 160.34298828 -16.55032227 161.51410156 -15.99267578 162.72070312 C-14.18088532 166.63557039 -12.35713108 170.54481334 -10.53125 174.453125 C-10.21756973 175.12458054 -9.90388947 175.79603607 -9.58070374 176.48783875 C-8.35477357 179.11140181 -7.1285137 181.73480996 -5.90139771 184.3578186 C-2.31694128 192.02030162 1.23361488 199.69627105 4.71484375 207.40625 C7.68850889 206.23344866 10.63985856 205.01227569 13.58984375 203.78125 C14.43160156 203.44996094 15.27335937 203.11867188 16.140625 202.77734375 C21.19491423 200.72405592 21.19491423 200.72405592 24.203125 196.35546875 C24.37199219 195.38222656 24.54085937 194.40898437 24.71484375 193.40625 C26.83041777 187.66397766 29.20751437 183.57926929 34.51171875 180.29296875 C39.51255306 178.28022161 45.77234526 178.5804689 50.9140625 180.0234375 C55.16677803 182.10828286 57.25830754 185.12492493 59.0546875 189.33203125 C60.61596694 194.23758974 60.10719509 198.00109868 58.02734375 202.59375 C55.63897599 206.94158849 52.75155872 209.30532299 48.40234375 211.65625 C41.5272185 213.5748896 36.90297473 212.38131297 30.71484375 209.40625 C28.32032402 208.5438985 27.1549162 208.27063388 24.70019531 209.02709961 C24.00893555 209.36749268 23.31767578 209.70788574 22.60546875 210.05859375 C21.47431641 210.60483398 21.47431641 210.60483398 20.3203125 211.16210938 C19.54300781 211.55205078 18.76570313 211.94199219 17.96484375 212.34375 C16.77568359 212.92286133 16.77568359 212.92286133 15.5625 213.51367188 C13.6081025 214.46732367 11.66076269 215.4354149 9.71484375 216.40625 C12.86349228 227.79063731 12.86349228 227.79063731 19.67578125 236.87890625 C21.71055937 237.65461668 23.56244911 238.09814512 25.71484375 238.40625 C26.70484375 238.633125 27.69484375 238.86 28.71484375 239.09375 C42.04846352 240.48266873 53.80631471 236.78404975 64.83984375 229.28125 C73.19202867 221.68835462 78.99843008 211.78680337 80.08984375 200.54296875 C80.61809642 188.95175345 78.26189029 179.46221924 70.6875 170.47265625 C61.80770093 161.17084693 51.89553422 156.98311133 39.07421875 156.29296875 C32.38014653 156.51869909 26.03913195 158.29815393 19.71484375 160.40625 C16.71484375 154.78125 16.71484375 154.78125 16.71484375 151.40625 C18.10933484 150.923191 19.50551082 150.44499483 20.90234375 149.96875 C21.67964844 149.70191406 22.45695312 149.43507812 23.2578125 149.16015625 C37.72381171 144.72146333 53.32792332 146.89396695 66.58984375 153.78125 C70.20088819 155.90539379 73.22021796 158.43809041 76.20703125 161.3671875 C76.70460938 161.71007812 77.2021875 162.05296875 77.71484375 162.40625 C82.75068337 160.72763679 84.34395444 155.9342599 86.71484375 151.40625 C91.2275067 142.26392913 91.27589759 131.05357306 88.08984375 121.46875 C83.76541763 111.26249953 75.77218876 102.57638922 65.578125 98.00390625 C60.97006241 96.52584844 57.16534495 98.46792809 52.96484375 100.34375 C50.17492788 101.94131451 48.96057158 102.74114668 47.8359375 105.78515625 C47.54745605 107.52903959 47.29848873 109.27993036 47.08984375 111.03515625 C46.55712667 114.40348197 45.16507973 116.0960275 42.71484375 118.40625 C37.4259755 122.10845778 33.14742074 122.84235691 26.71484375 122.40625 C21.10979502 120.50623348 17.42559078 118.40005731 14.46484375 113.21875 C13.07213453 107.99609041 13.0683499 103.27389891 14.83984375 98.15625 C17.68963845 93.9765511 20.82077346 91.03760676 25.71484375 89.40625 C36.7729588 88.40692405 36.7729588 88.40692405 41.77734375 91.78125 C43.59293146 92.98656579 43.59293146 92.98656579 45.71484375 93.40625 C51.20492814 91.73799231 55.5177437 89.0962736 58.83984375 84.40625 C61.97645345 73.65215961 61.1806734 63.926656 56.49609375 53.76171875 C51.20793061 44.19895708 43.08174588 37.01654179 32.71484375 33.40625 C17.66172992 29.7093043 5.77750303 32.51488562 -7.28515625 40.40625 C-11.25215016 43.41804636 -14.25491758 46.34302885 -17.03515625 50.46875 C-17.89367187 51.72365234 -17.89367187 51.72365234 -18.76953125 53.00390625 C-20.47114505 55.61319998 -20.47114505 55.61319998 -22.28515625 59.40625 C-25.58515625 58.74625 -28.88515625 58.08625 -32.28515625 57.40625 C-25.42214699 41.42046013 -15.27623883 31.81485332 0.6328125 25.19140625 C1.31988281 24.93230469 2.00695312 24.67320313 2.71484375 24.40625 C1.70907402 17.41492382 -2.40771464 12.65966813 -7.87890625 8.375 C-27.98779827 -4.95561381 -52.06553645 -2.12569943 -68.66015625 15.78125 Z M-136.59765625 46.03125 C-144.73786978 54.68912416 -148.8148431 64.53084297 -149.28515625 76.40625 C-148.79929859 87.45951176 -143.7609124 98.17135928 -135.62109375 105.65625 C-126.18509545 112.7253591 -115.08954855 116.72466265 -103.28515625 115.40625 C-97.8892352 114.32811507 -92.58441162 112.87899591 -87.28515625 111.40625 C-87.14078125 112.14875 -86.99640625 112.89125 -86.84765625 113.65625 C-86.38328133 115.92652739 -85.86652056 118.16384479 -85.28515625 120.40625 C-98.84706467 125.94980381 -114.49660289 126.77306185 -128.37890625 121.74609375 C-135.15955591 118.62006844 -141.1342225 114.83078993 -146.28515625 109.40625 C-151.81802525 111.25053967 -153.83658448 117.51983662 -156.33984375 122.5078125 C-159.75030147 130.92027488 -159.82688429 142.36380881 -156.66015625 150.84375 C-155.91309647 152.38698421 -155.12137245 153.90944921 -154.28515625 155.40625 C-153.88425781 156.17324219 -153.48335937 156.94023437 -153.0703125 157.73046875 C-148.6863361 165.21499658 -141.31357326 171.0905306 -133.28515625 174.40625 C-127.7464269 174.18904493 -121.71395926 172.9051961 -117.28515625 169.40625 C-116.58232831 167.10649021 -116.53557738 165.12215267 -116.5 162.72265625 C-116.13155239 158.75012111 -114.0501162 156.16371683 -111.28515625 153.40625 C-106.18827102 149.93110098 -100.18707256 148.6860038 -94.10546875 149.80859375 C-88.91784581 151.46276031 -86.34516944 153.95532172 -83.28515625 158.40625 C-81.55250163 163.60421387 -81.83996274 167.9470046 -83.41015625 173.09375 C-86.08125244 177.81268661 -89.2134405 180.37039213 -94.03515625 182.78125 C-100.98151446 184.11708812 -106.32138517 183.05077677 -112.28515625 179.40625 C-115.20145738 179.34875443 -115.20145738 179.34875443 -118.28515625 180.40625 C-119.30222656 180.69435547 -119.30222656 180.69435547 -120.33984375 180.98828125 C-123.81982628 182.28212091 -125.77258021 183.3776921 -127.4609375 186.765625 C-130.78500688 197.91937437 -129.69929266 207.69406227 -125.28515625 218.40625 C-123.60420825 221.44626234 -121.67518843 223.89324077 -119.28515625 226.40625 C-118.31255859 227.43878906 -118.31255859 227.43878906 -117.3203125 228.4921875 C-109.27687007 236.31745338 -99.76154532 239.89063696 -88.66015625 240.65625 C-77.23417047 240.46000215 -65.40362253 235.9133056 -56.9453125 228.21484375 C-54.26131757 225.2908681 -52.06175972 222.07115521 -49.86328125 218.7734375 C-48.40708839 216.58914821 -46.87976579 214.4907697 -45.28515625 212.40625 C-42.31515625 213.06625 -39.34515625 213.72625 -36.28515625 214.40625 C-44.39743293 231.04815521 -54.85213429 241.47608571 -72.28515625 248.40625 C-67.53943337 258.70852278 -60.52293692 265.12585684 -50.03515625 269.4375 C-37.95984546 273.69130267 -27.13897625 272.8367277 -15.33203125 267.921875 C-5.01482425 262.78972588 1.6225963 254.94727959 6.9296875 244.93359375 C8.66970839 239.33263098 5.97724871 234.30656102 3.5390625 229.296875 C3.21751694 228.62029343 2.89597137 227.94371185 2.56468201 227.24662781 C1.51744708 225.04647657 0.46004232 222.8513874 -0.59765625 220.65625 C-1.68972802 218.3709067 -2.77933387 216.08440007 -3.86859131 213.79771423 C-4.60332241 212.25538015 -5.33888053 210.71343976 -6.07525635 209.17189026 C-8.4110598 204.27420114 -10.70019578 199.35785093 -12.9453125 194.41796875 C-13.4921167 193.21688477 -14.0389209 192.01580078 -14.60229492 190.77832031 C-15.62398002 188.5258417 -16.64122877 186.27134443 -17.65356445 184.01464844 C-18.10691162 183.01852539 -18.56025879 182.02240234 -19.02734375 180.99609375 C-19.41776855 180.12847412 -19.80819336 179.26085449 -20.21044922 178.36694336 C-21.13097593 176.24610057 -21.13097593 176.24610057 -23.28515625 175.40625 C-26.6994962 176.10058406 -29.51454825 177.28878913 -32.28515625 179.40625 C-33.5904934 182.66410828 -33.86735331 185.93961476 -34.28515625 189.40625 C-35.81057037 193.6964772 -38.16260798 195.10645094 -42.03515625 197.21875 C-47.91058176 199.91803969 -52.32177039 200.1784245 -58.47265625 198.21875 C-62.88983103 196.42106259 -65.16582232 193.64491786 -67.28515625 189.40625 C-67.96759547 182.03366891 -68.0518379 176.27293511 -63.28515625 170.40625 C-57.96647637 165.99287733 -53.16899881 165.82899332 -46.36328125 165.984375 C-43.35032633 166.39731806 -41.95345244 166.91598078 -39.53515625 168.65625 C-36.51429423 170.75754717 -36.51429423 170.75754717 -33.8671875 169.78125 C-31.58955375 168.76426005 -29.43295263 167.67252451 -27.28515625 166.40625 C-27.92467219 162.05558811 -29.53200869 158.38908559 -31.42578125 154.46484375 C-31.74404877 153.79362991 -32.06231628 153.12241608 -32.39022827 152.43086243 C-33.07585189 150.98648159 -33.76399606 149.54329505 -34.45440674 148.10119629 C-35.92283709 145.03397061 -37.37920207 141.96106646 -38.8364563 138.88851929 C-39.58033561 137.32052378 -40.32486646 135.7528372 -41.07003784 134.18545532 C-44.39245218 127.19514686 -47.66009132 120.18051828 -50.91015625 113.15625 C-51.95035714 110.91138248 -52.99072285 108.66659132 -54.03125 106.421875 C-54.55315918 105.29587891 -55.07506836 104.16988281 -55.61279297 103.00976562 C-58.41182077 96.97857579 -61.22002544 90.95167267 -64.03070068 84.92590332 C-64.6527029 83.59226415 -65.2744926 82.25852584 -65.89605713 80.92468262 C-66.7582704 79.07452764 -67.62130525 77.2247556 -68.484375 75.375 C-68.97768311 74.31732422 -69.47099121 73.25964844 -69.97924805 72.16992188 C-71.0522987 69.89904258 -72.14937427 67.64621777 -73.28515625 65.40625 C-80.23686756 66.48997686 -86.59399191 69.33706749 -92.28515625 73.40625 C-93.80521795 76.29767171 -94.35260107 78.67214506 -94.8671875 81.8828125 C-95.62670255 86.46829586 -98.14251156 88.55659113 -101.72265625 91.21875 C-107.53502827 93.15620734 -114.49401554 93.80110366 -120.35546875 91.64453125 C-124.38392248 89.08373026 -126.79920644 85.86409944 -128.28515625 81.40625 C-128.67547629 75.55144941 -128.25064657 71.6452829 -125.28515625 66.40625 C-121.60656398 62.72765773 -118.4174813 60.39323559 -113.28515625 59.40625 C-107.33869215 59.41582563 -103.33930703 60.22935522 -98.28515625 63.40625 C-93.61511976 62.9901922 -89.63364579 60.85456313 -85.47265625 58.84375 C-84.77978516 58.51439453 -84.08691406 58.18503906 -83.37304688 57.84570312 C-81.67470677 57.03752749 -79.97959856 56.22256623 -78.28515625 55.40625 C-79.86721812 51.3669431 -81.55231242 47.38302925 -83.28515625 43.40625 C-83.5996875 42.59027344 -83.91421875 41.77429688 -84.23828125 40.93359375 C-85.37243789 38.5257612 -86.23833283 37.12920895 -88.28515625 35.40625 C-105.66838488 29.31592643 -123.25742197 33.64530968 -136.59765625 46.03125 Z M-118.28515625 74.40625 C-118.35673495 77.98518502 -117.95148315 79.641208 -115.59765625 82.34375 C-112.34439749 83.83849051 -110.66002307 83.53120561 -107.28515625 82.40625 C-104.73342765 80.27939071 -104.73342765 80.27939071 -103.28515625 77.40625 C-103.28515625 74.16054392 -103.7839177 72.92538992 -106.03515625 70.59375 C-111.59098133 67.66150899 -114.69171272 69.54453228 -118.28515625 74.40625 Z M-25.28515625 86.40625 C-25.97476436 90.08415991 -25.74343438 91.69133611 -23.72265625 94.84375 C-21.2676908 96.73519058 -21.2676908 96.73519058 -17.72265625 96.34375 C-13.71430935 95.37366423 -13.71430935 95.37366423 -11.28515625 92.40625 C-10.73891467 88.73862794 -10.80617327 87.0803742 -12.97265625 84.03125 C-15.16301687 82.26247153 -15.16301687 82.26247153 -17.72265625 81.90625 C-21.23900933 82.59236767 -22.86420534 83.77778902 -25.28515625 86.40625 Z M23.71484375 103.40625 C23.53722634 107.08208445 23.53722634 107.08208445 24.71484375 110.40625 C28.20608392 112.73374345 29.60706626 112.90924316 33.71484375 112.40625 C36.21484375 110.90625 36.21484375 110.90625 37.71484375 108.40625 C38.3327754 104.69866009 38.21681624 103.1127298 36.02734375 100.03125 C33.83271341 98.27246181 33.83271341 98.27246181 31.27734375 97.84375 C27.44389989 98.68523768 25.99211718 100.25825438 23.71484375 103.40625 Z M-106.28515625 163.40625 C-107.44281475 165.28582244 -107.44281475 165.28582244 -107.28515625 167.40625 C-106.42008555 170.20984527 -106.42008555 170.20984527 -104.28515625 172.40625 C-100.92922762 173.74285145 -100.92922762 173.74285145 -97.28515625 173.40625 C-94.13856959 171.50975449 -94.13856959 171.50975449 -92.28515625 168.40625 C-92.03185841 165.25914698 -92.03185841 165.25914698 -93.28515625 162.40625 C-94.99607735 160.43526574 -94.99607735 160.43526574 -97.28515625 159.40625 C-101.99296763 159.40625 -102.99450461 160.20453489 -106.28515625 163.40625 Z M-55.03515625 176.96875 C-57.60664746 179.30184112 -57.60664746 179.30184112 -57.84765625 182.96875 C-57.57425059 186.36621985 -57.57425059 186.36621985 -55.72265625 188.40625 C-52.19446047 189.85371494 -49.92422169 189.39872239 -46.28515625 188.40625 C-43.9497992 186.29689525 -43.39874257 184.9741816 -42.78515625 181.90625 C-43.09429808 179.1834964 -43.09429808 179.1834964 -45.53515625 177.09375 C-49.25887068 174.80874342 -51.24038183 174.81262817 -55.03515625 176.96875 Z M35.71484375 192.40625 C34.47083097 194.79233611 34.47083097 194.79233611 34.71484375 197.40625 C36.14334985 200.3377613 36.14334985 200.3377613 38.71484375 202.40625 C41.67144248 203.23974951 41.67144248 203.23974951 44.71484375 202.40625 C47.77792006 200.42658737 47.77792006 200.42658737 49.71484375 197.40625 C50.05035222 194.25252591 50.05035222 194.25252591 48.71484375 191.40625 C43.45443487 187.25329562 40.40907864 187.83554761 35.71484375 192.40625 Z " fill="#2BAADD" transform="translate(259.28515625,82.59375)"/>
<path d="M0 0 C0.68803711 0.20898926 1.37607422 0.41797852 2.08496094 0.63330078 C15.7327913 4.94467171 36.87134694 13.24699963 44.2890625 26.26171875 C44.52367187 26.83535156 44.75828125 27.40898438 45 28 C44.443125 28.69222656 43.88625 29.38445312 43.3125 30.09765625 C33.76323016 42.34072349 27.42759457 55.5058554 22 70 C21.030625 69.175 20.06125 68.35 19.0625 67.5 C18.41796875 66.95214844 17.7734375 66.40429688 17.109375 65.83984375 C15.69919746 64.60985556 14.31338399 63.35138373 12.953125 62.06640625 C3.56213283 53.27520373 -6.54203047 48.11031186 -19 45 C-20.15048828 44.71189453 -20.15048828 44.71189453 -21.32421875 44.41796875 C-39.1744362 41.62968661 -56.70937553 45.38113042 -72 55 C-87.35205854 66.53208393 -98.15347293 82.81476226 -101 102 C-102.8316213 120.35944869 -98.8187235 137.80803651 -87.625 152.75 C-86.43679711 154.18359261 -85.22854445 155.60082438 -84 157 C-83.12601563 158.01513672 -83.12601563 158.01513672 -82.234375 159.05078125 C-70.98449986 171.22238985 -54.68975588 178.1919884 -38.2578125 179.23828125 C-17.88477367 179.79090425 -0.61092317 173.80508337 14.32128906 159.76928711 C16.52806636 157.61732933 18.28231599 155.57652601 20 153 C20.66 153 21.32 153 22 153 C22.33040283 153.82854492 22.33040283 153.82854492 22.66748047 154.67382812 C28.52331914 169.20955516 34.94198013 182.84751832 45 195 C40.27163231 206.33307177 22.38306886 214.30299581 11.54711914 218.91748047 C-17.38958779 230.50733818 -50.38379043 230.65586117 -79.2578125 218.69140625 C-99.67920962 209.71933053 -119.47484319 194.32076165 -131 175 C-131.34724121 174.44296387 -131.69448242 173.88592773 -132.05224609 173.31201172 C-138.44294899 163.01996019 -142.73680333 152.6496121 -146 141 C-146.51046875 139.29070312 -146.51046875 139.29070312 -147.03125 137.546875 C-151.77994274 118.64004281 -150.67997436 96.5850502 -145 78 C-144.79101074 77.31196289 -144.58202148 76.62392578 -144.36669922 75.91503906 C-139.51514929 60.55724879 -131.66273739 47.04494409 -121 35 C-120.42765625 34.29617187 -119.8553125 33.59234375 -119.265625 32.8671875 C-91.71363899 -0.58879551 -40.46232653 -12.36612087 0 0 Z " fill="#FFFFFF" transform="translate(932,45)"/>
<path d="M0 0 C1.19625 0.31710938 2.3925 0.63421875 3.625 0.9609375 C20.30794871 5.94461498 34.85539455 14.72094214 48 26 C47.46249563 30.25461203 46.08897559 32.54379192 43.4375 35.875 C35.62534362 46.2912085 30.29660298 57.75055016 26 70 C25.01 70 24.02 70 23 70 C21.6328125 68.56640625 21.6328125 68.56640625 20.125 66.5625 C10.04197876 54.56498106 -5.65957628 47.09921588 -21 45 C-40.82009255 43.32991641 -59.38859034 47.89290255 -74.85839844 60.77636719 C-89.36491945 73.67624196 -96.3052558 91.08282124 -98.21875 110.18359375 C-98.95808959 126.47987059 -92.88514637 142.34271476 -83 155 C-82.48953125 155.68707031 -81.9790625 156.37414062 -81.453125 157.08203125 C-71.29067572 169.835402 -54.9029247 177.74056808 -39 180 C-20.25341928 181.74924895 -1.83706593 177.1320788 12.99707031 165.18408203 C17.21115635 161.66007558 21.14830818 157.91437759 25 154 C25.495 155.155 25.99 156.31 26.5 157.5 C32.08131024 169.97471797 38.35964832 181.6662833 46 193 C48 196 48 196 47.80322266 198.03027344 C46.41532749 201.43378049 43.2861778 203.18844252 40.375 205.25 C39.70057861 205.73235107 39.02615723 206.21470215 38.33129883 206.71166992 C12.22730544 225.00115001 -19.56804114 232.25532632 -51.13549805 226.86816406 C-81.38495567 220.87582275 -108.5399369 203.73891887 -126.19140625 178.28173828 C-143.84662403 151.76249408 -149.84876499 119.99012931 -144.03515625 88.734375 C-138.02735706 59.7394355 -120.66280807 33.25949908 -96.10351562 16.50512695 C-68.04043842 -1.84289344 -32.74071656 -8.98908066 0 0 Z " fill="#FFFFFF" transform="translate(1115,44)"/>
<path d="M0 0 C7.40072263 5.86348054 11.73233694 11.53088907 17.51953125 19.48828125 C17.84953125 9.58828125 18.17953125 -0.31171875 18.51953125 -10.51171875 C23.46953125 -10.51171875 28.41953125 -10.51171875 33.51953125 -10.51171875 C33.58911007 9.22973452 33.64258252 28.97115292 33.67496777 48.7127037 C33.69040744 57.87996354 33.71144126 67.04714558 33.74584961 76.21435547 C33.77584103 84.20862993 33.7951273 92.20284801 33.80179673 100.19717717 C33.80569255 104.42637061 33.81478718 108.65540283 33.83672142 112.88454437 C33.85724088 116.87361175 33.86333418 120.86245308 33.85885429 124.85156822 C33.85967264 126.30751719 33.86554561 127.76347454 33.87714767 129.21937752 C34.02720122 149.0385745 28.51452331 165.05400406 14.95703125 179.61328125 C-0.47788774 194.53213912 -21.95547815 199.88028695 -42.90234375 199.63671875 C-64.12184466 198.75643378 -84.29440553 193.20652901 -100.0234375 178.19140625 C-109.48046875 167.78716837 -109.48046875 167.78716837 -109.48046875 162.48828125 C-106.9609375 160.7265625 -106.9609375 160.7265625 -103.66796875 158.80078125 C-102.04955078 157.83591797 -102.04955078 157.83591797 -100.3984375 156.8515625 C-97.48046875 155.48828125 -97.48046875 155.48828125 -94.48046875 156.48828125 C-92.9375 158.52734375 -92.9375 158.52734375 -91.29296875 161.11328125 C-82.83337141 173.51951082 -71.09064966 179.10716048 -56.578125 182.12011719 C-36.63493452 185.62038851 -17.47373118 182.75521663 -0.48046875 171.48828125 C0.40640625 170.91078125 1.29328125 170.33328125 2.20703125 169.73828125 C12.53612479 159.6883524 17.03834581 146.15072787 17.67797852 131.97729492 C17.7152368 128.2497391 17.69477058 124.52815329 17.64453125 120.80078125 C17.63550781 119.51494141 17.62648438 118.22910156 17.6171875 116.90429688 C17.59385015 113.76542393 17.56111158 110.62695649 17.51953125 107.48828125 C17.06932617 108.07851074 16.61912109 108.66874023 16.15527344 109.27685547 C4.88020831 123.93803283 -6.61802452 133.10853334 -24.48046875 138.48828125 C-25.69089844 138.85953125 -25.69089844 138.85953125 -26.92578125 139.23828125 C-45.43311187 143.88123527 -67.43712119 140.1126535 -83.71484375 130.59765625 C-86.71001578 128.64557896 -89.60954737 126.6181831 -92.48046875 124.48828125 C-93.48207031 123.74771484 -93.48207031 123.74771484 -94.50390625 122.9921875 C-109.06849205 111.36028979 -117.32041592 93.51767745 -120.48046875 75.48828125 C-122.11380549 52.26335921 -118.41666667 30.8525817 -103.23046875 12.55078125 C-77.73387589 -16.59513311 -31.61374926 -23.52630485 0 0 Z M-92.59765625 24.875 C-102.61319419 38.77623419 -107.35462764 55.61366535 -104.7265625 72.63525391 C-101.69182783 89.32230151 -93.66854473 104.61206628 -79.48046875 114.48828125 C-63.59938804 124.14827362 -46.81257261 128.26892108 -28.41796875 123.92578125 C-12.20439947 119.65138312 1.56453582 109.86888927 10.05859375 95.3046875 C18.74152777 78.56566229 21.22874974 61.72712691 15.51953125 43.48828125 C8.86816104 26.31595466 -2.5863277 13.68134786 -19.32421875 5.77734375 C-45.6673832 -4.98162193 -74.38071037 3.52355938 -92.59765625 24.875 Z " fill="#299FE1" transform="translate(1805.48046875,405.51171875)"/>
<path d="M0 0 C2.22731271 2.42099208 1.99817428 4.06236672 1.90234375 7.3359375 C1.02324031 13.71466588 -2.10275998 19.32496375 -4.875 25.0625 C-5.77067396 26.92978126 -6.66467388 28.7978576 -7.55851746 30.66601562 C-8.16356372 31.92946494 -8.77018721 33.19216013 -9.37837219 34.45410156 C-11.29981554 38.46002454 -13.09259623 42.50150486 -14.81640625 46.59765625 C-19.71682369 58.03680711 -23.94018428 65.97494001 -35.08154297 71.95507812 C-37.10802526 73.05883789 -39.05098023 74.25550418 -41.00390625 75.484375 C-60.4590756 87.59649802 -81.17659608 95.32740947 -103 102 C-103.62463135 102.20560547 -104.2492627 102.41121094 -104.89282227 102.62304688 C-112.44137224 103.97340734 -119.02711245 102.23528139 -126.2890625 100.26171875 C-127.35111908 99.98028519 -128.41317566 99.69885162 -129.50741577 99.40888977 C-131.7425436 98.81421755 -133.97638562 98.21469359 -136.20898438 97.6105957 C-139.61787298 96.6894259 -143.03109812 95.78597084 -146.4453125 94.88476562 C-148.62267528 94.30312843 -150.7997683 93.72048024 -152.9765625 93.13671875 C-153.99231354 92.86784348 -155.00806458 92.5989682 -156.05459595 92.32194519 C-169.98074788 88.52887818 -169.98074788 88.52887818 -173 84 C-173.5 81.0625 -173.5 81.0625 -173 78 C-169.80304493 75.05857356 -166.49647419 73.08138774 -162.58984375 71.22265625 C-161.53240967 70.71613525 -160.47497559 70.20961426 -159.38549805 69.68774414 C-157.67873901 68.88324829 -157.67873901 68.88324829 -155.9375 68.0625 C-154.73002848 67.48796085 -153.52275689 66.91300133 -152.31567383 66.33764648 C-140.45151135 60.6949957 -128.52738979 55.17977632 -116.60205078 49.66796875 C-110.43670705 46.81303935 -104.28093263 43.93765129 -98.125 41.0625 C-96.86743901 40.47532601 -95.60987064 39.88816783 -94.35229492 39.30102539 C-91.82888501 38.12283651 -89.30553721 36.94451474 -86.78222656 35.76611328 C-83.01916534 34.00882897 -79.25573581 32.25233458 -75.4921875 30.49609375 C-74.87316055 30.20722794 -74.25413361 29.91836212 -73.61634827 29.6207428 C-71.12513205 28.45825092 -68.63390081 27.29579122 -66.14266968 26.1333313 C-59.74153912 23.14640384 -53.34052825 20.15922162 -46.9402771 17.17041016 C-44.25200035 15.91505709 -41.5636256 14.65991396 -38.87524414 13.40478516 C-37.6115237 12.8147199 -36.3478496 12.22455535 -35.08422852 11.63427734 C-32.1857738 10.28032927 -29.28663648 8.92788918 -26.38623047 7.578125 C-24.0496704 6.4891903 -21.71549885 5.39512083 -19.38330078 4.296875 C-18.22685059 3.75546875 -17.07040039 3.2140625 -15.87890625 2.65625 C-14.84451416 2.16962891 -13.81012207 1.68300781 -12.74438477 1.18164062 C-8.08859272 -0.82298828 -4.98940256 -1.41004855 0 0 Z " fill="#FFFFFF" transform="translate(461,493)"/>
<path d="M0 0 C16.77731559 13.21399193 26.28145735 31.99214881 29.52734375 52.87109375 C30.52020089 68.26037946 30.52020089 68.26037946 28.77734375 71.74609375 C-14.78265625 71.74609375 -58.34265625 71.74609375 -103.22265625 71.74609375 C-98.4721318 90.74819155 -92.53233965 105.31625923 -75.953125 116.21484375 C-59.96871931 125.17891675 -41.66268155 127.27462638 -24.00878906 122.58251953 C-10.94246626 118.78193226 0.13665247 112.23147916 7 100.21484375 C7.25652344 99.73015625 7.51304687 99.24546875 7.77734375 98.74609375 C12.74943937 100.51038574 17.21172436 103.14001035 21.77734375 105.74609375 C21.01501755 112.45218208 16.32040651 116.12531141 11.77734375 120.74609375 C11.08253906 121.46539063 10.38773438 122.1846875 9.671875 122.92578125 C-5.55887663 137.61359802 -26.72903137 141.2268004 -47.078125 140.95703125 C-63.40914558 140.4695381 -79.5163122 135.11515043 -92.22265625 124.74609375 C-93.07601562 124.05515625 -93.929375 123.36421875 -94.80859375 122.65234375 C-109.36936241 110.23415066 -117.47995273 92.90752994 -119.97265625 74.05859375 C-120.08247806 72.62287447 -120.16439764 71.18482813 -120.22265625 69.74609375 C-120.26261719 68.84890625 -120.30257812 67.95171875 -120.34375 67.02734375 C-120.84360209 44.68101496 -114.0759854 24.33683765 -98.55078125 8.01953125 C-72.34867475 -17.56708953 -30.0485822 -21.01579628 0 0 Z M-92.22265625 24.74609375 C-99.14034565 33.57748821 -103.22265625 45.60132011 -103.22265625 56.74609375 C-64.94265625 56.74609375 -26.66265625 56.74609375 12.77734375 56.74609375 C12.77734375 51.15517429 12.36567002 47.15736277 10.71484375 41.99609375 C10.49368896 41.29943604 10.27253418 40.60277832 10.04467773 39.88500977 C7.89986588 33.50641719 4.81591282 28.13387087 0.77734375 22.74609375 C0.30554688 22.09253906 -0.16625 21.43898438 -0.65234375 20.765625 C-8.35551963 10.90817112 -21.18197567 4.02419328 -33.44921875 2.03125 C-56.94589957 -0.38460592 -76.73579251 6.67031152 -92.22265625 24.74609375 Z " fill="#2BAADD" transform="translate(768.22265625,405.25390625)"/>
<path d="M0 0 C4.45442223 3.67974011 5.66843109 6.54538964 6.3125 12.25 C6.07720134 16.99217301 4.66768004 20.55663961 1.875 24.375 C-5.90993959 31.23380022 -16.63552468 35.09225648 -25.9375 39.4375 C-27.74358552 40.28745507 -29.54940987 41.13796531 -31.35498047 41.98901367 C-36.60682223 44.46138793 -41.86487707 46.92030261 -47.125 49.375 C-47.83142639 49.70491943 -48.53785278 50.03483887 -49.26568604 50.37475586 C-56.74675521 53.8680596 -64.23787859 57.3394191 -71.73242188 60.80371094 C-77.82775802 63.62679553 -83.91361586 66.47018435 -90 69.3125 C-91.26667513 69.90382534 -92.53335807 70.49513393 -93.80004883 71.08642578 C-99.94941797 73.95718866 -106.09798878 76.82965561 -112.24609375 79.703125 C-126.2887563 86.26440996 -140.3401415 92.80683627 -154.3999939 99.33120728 C-156.24738697 100.18865606 -158.09457783 101.04654066 -159.94155884 101.90487671 C-162.53465621 103.10976123 -165.12854873 104.31291717 -167.72265625 105.515625 C-168.49841003 105.87644669 -169.27416382 106.23726837 -170.07342529 106.60902405 C-178.69641928 110.6016368 -186.80673108 113.67751658 -196.421875 110.65234375 C-200.22840264 108.64334305 -202.64213028 106.387471 -204.125 102.375 C-205.3064087 95.50354122 -203.9695862 91.04104688 -200.0234375 85.3828125 C-194.4647595 79.50388145 -186.73354505 76.73344178 -179.5 73.4375 C-178.2495879 72.8630913 -176.99942981 72.28812936 -175.74951172 71.71264648 C-173.15756178 70.51981032 -170.56454436 69.32934263 -167.97070312 68.140625 C-162.05416445 65.42705247 -156.15261879 62.68118381 -150.25 59.9375 C-149.10047852 59.40382813 -147.95095703 58.87015625 -146.76660156 58.3203125 C-134.47185337 52.61167074 -122.18933294 46.87688565 -109.90722656 41.14111328 C-106.14416534 39.38382897 -102.38073034 37.62734632 -98.6171875 35.87109375 C-97.99888565 35.58254517 -97.3805838 35.29399658 -96.74354553 34.9967041 C-93.62177547 33.53988994 -90.49985494 32.08339956 -87.37768555 30.62744141 C-80.48257029 27.41158089 -73.59128413 24.18775845 -66.70423889 20.95465088 C-61.73237629 18.62238787 -56.7515368 16.30983455 -51.7674408 14.00384521 C-47.90565179 12.21346586 -44.06052514 10.39133467 -40.22337341 8.54878235 C-37.63213776 7.31011773 -35.03142952 6.09230973 -32.42849731 4.87844849 C-30.62836039 4.03100485 -28.84013283 3.15840374 -27.05249023 2.28491211 C-18.63516451 -1.60868816 -8.83510361 -4.40084702 0 0 Z " fill="#FFFFFF" transform="translate(456.125,446.625)"/>
<path d="M0 0 C5.28 0 10.56 0 16 0 C16.495 40.59 16.495 40.59 17 82 C19.31 79.03 21.62 76.06 24 73 C33.95065579 62.21286177 47.35202121 56.45663187 61.8984375 55.68359375 C78.17309247 55.15990067 93.80590382 57.43577385 106.6875 68.2578125 C117.58415801 78.6031515 124.46233093 91.92373113 125.08926582 107.17097092 C125.12284012 109.79599862 125.12365023 112.41920745 125.11352539 115.04443359 C125.11367142 116.04017395 125.11381744 117.03591431 125.1139679 118.06182861 C125.11327333 121.34072069 125.10550227 124.61955539 125.09765625 127.8984375 C125.09579045 130.17672698 125.09436731 132.45501686 125.09336853 134.73330688 C125.08955611 140.72065342 125.0797367 146.70797558 125.06866455 152.6953125 C125.05842303 158.8085904 125.05386504 164.92187224 125.04882812 171.03515625 C125.03811329 183.02344819 125.02105217 195.01172207 125 207 C119.72 207 114.44 207 109 207 C108.99413376 205.77383972 108.98826752 204.54767944 108.98222351 203.28436279 C108.92484648 191.69165172 108.85200708 180.09912554 108.76428509 168.50660324 C108.71968345 162.54771037 108.68040496 156.58888426 108.65356445 150.62988281 C108.62742954 144.8720247 108.58695551 139.11442492 108.53681374 133.3567276 C108.52021372 131.16730224 108.50865693 128.97783227 108.50238609 126.78835297 C108.54007022 103.11523231 108.54007022 103.11523231 97.11328125 82.96484375 C87.02877742 73.63321054 76.23978736 71.5346634 62.78125 71.75 C50.8026791 72.54197163 38.187722 76.84674474 30 86 C20.8725576 98.26016627 16.72190941 111.19715173 16.68115234 126.39697266 C16.67110672 127.27625427 16.6610611 128.15553589 16.65071106 129.0614624 C16.62015146 131.92898992 16.60292057 134.7964253 16.5859375 137.6640625 C16.56720389 139.66760028 16.54762888 141.67113036 16.5272522 143.6746521 C16.47615662 148.91879714 16.43641073 154.16296769 16.39910889 159.40722656 C16.35892694 164.77024531 16.30789966 170.13315998 16.2578125 175.49609375 C16.16132085 185.99732248 16.07683127 196.49861029 16 207 C10.72 207 5.44 207 0 207 C0 138.69 0 70.38 0 0 Z " fill="#2CB3DB" transform="translate(981,336)"/>
<path d="M0 0 C16.79518562 13.54367865 27.24554787 29.69192569 31 51 C32.21846711 67.69383968 31.07282626 84.01570143 23 99 C22.58105469 99.79535156 22.16210938 100.59070313 21.73046875 101.41015625 C17.99002399 108.07700958 13.34695332 113.5610165 8 119 C7.38511719 119.62777344 6.77023437 120.25554687 6.13671875 120.90234375 C-9.53417585 135.70076884 -30.17447432 140.49434188 -51.1328125 140.21484375 C-70.22027029 139.61580268 -88.65318134 130.85202983 -102.39453125 117.8046875 C-114.34597494 104.93941528 -123.22736953 87.77050083 -124 70 C-124.07734375 68.49953125 -124.07734375 68.49953125 -124.15625 66.96875 C-124.6631599 48.21308372 -120.00195673 29.71287099 -108 15 C-107.32066406 14.15824219 -106.64132812 13.31648438 -105.94140625 12.44921875 C-79.75223093 -18.31489272 -32.7933591 -23.1760759 0 0 Z M-93 22 C-103.32432058 34.35502334 -108.8288977 49.80205161 -108.2734375 65.953125 C-106.66866212 83.83490781 -99.34892737 99.04082397 -86 111 C-72.26116839 121.6682618 -56.2614083 126.41018744 -39 125 C-22.75623774 122.63253675 -8.56796535 115.34527323 1.99609375 102.58984375 C6.26003295 96.8037241 9.40535697 90.69094759 12 84 C12.32097656 83.195625 12.64195312 82.39125 12.97265625 81.5625 C17.91759891 66.84267068 16.08850762 49.17059285 9.4362793 35.3918457 C0.56757641 18.03815062 -13.01480439 8.46113444 -31.1953125 2.25 C-54.03532841 -4.00278002 -77.40909644 5.22585822 -93 22 Z " fill="#2BA9DE" transform="translate(1411,406)"/>
<path d="M0 0 C18.40263772 14.4990479 28.04549737 33.83457853 30.8359375 56.796875 C32.10969373 70.73934188 29.14271191 85.35517289 22.8359375 97.796875 C22.07990234 99.28960937 22.07990234 99.28960937 21.30859375 100.8125 C11.6298992 118.57575118 -4.0620119 130.53948332 -23.21484375 136.79296875 C-44.93121236 142.93467516 -67.3000383 140.50776312 -87.1640625 129.796875 C-104.69359612 119.15552084 -117.67975915 102.54167959 -122.72167969 82.59033203 C-127.49295866 61.1876163 -124.29018175 39.58398737 -113.1640625 20.796875 C-101.44189343 2.96480177 -83.87776725 -8.60698062 -63.1640625 -13.203125 C-41.0681736 -17.7560243 -18.38216432 -12.79943293 0 0 Z M-94.1640625 21.796875 C-100.39273895 29.68052525 -104.71307351 38.00750826 -107.1640625 47.796875 C-107.35484375 48.53679687 -107.545625 49.27671875 -107.7421875 50.0390625 C-110.70014905 69.37536669 -106.43350231 86.54079052 -95.3203125 102.43359375 C-85.35935696 114.52602494 -69.73354001 123.13522024 -54.1640625 124.796875 C-38.38100611 126.060297 -21.50970674 122.45944774 -9.00390625 112.31640625 C5.7741387 99.65763164 13.04820998 84.42518986 15.12109375 65.14453125 C15.72940889 49.24899205 9.8096363 33.27861314 -0.5390625 21.296875 C-2.0484236 19.76437208 -3.58999634 18.26283947 -5.1640625 16.796875 C-5.92332031 16.08015625 -6.68257812 15.3634375 -7.46484375 14.625 C-20.36346522 3.39412173 -36.38934259 -0.33332585 -53.1015625 0.60595703 C-69.06532555 2.08366332 -83.53550746 9.97482516 -94.1640625 21.796875 Z " fill="#2BA9DE" transform="translate(1636.1640625,406.203125)"/>
<path d="M0 0 C5.61 0 11.22 0 17 0 C17.94617187 2.14628906 18.89234375 4.29257812 19.8671875 6.50390625 C27.47108061 23.7183784 35.20627196 40.86350024 43.12948608 57.93338013 C49.4307668 71.51613323 55.57480014 85.16282939 61.61132812 98.86523438 C62.22382278 100.25396605 62.83644993 101.64263928 63.44921875 103.03125 C63.74118134 103.69386841 64.03314392 104.35648682 64.33395386 105.03918457 C66.75761302 110.51378311 69.28703904 115.93638494 71.88346863 121.33117676 C74 125.78438484 74 125.78438484 74 128 C74.66 128 75.32 128 76 128 C76.25462257 127.10018402 76.25462257 127.10018402 76.51438904 126.18218994 C78.36694983 119.80427774 80.58300588 113.65368603 83.03515625 107.484375 C83.42616013 106.49094086 83.817164 105.49750671 84.22001648 104.47396851 C85.49720497 101.23119746 86.77990126 97.99063447 88.0625 94.75 C88.95715883 92.48048455 89.85135817 90.21078792 90.74511719 87.94091797 C92.58451841 83.27020778 94.42565098 78.60018604 96.26806641 73.93066406 C100.06538867 64.30231 103.84184969 54.66580673 107.61373901 45.02746582 C108.71152478 42.22328113 109.81084568 39.41970238 110.91040039 36.61621094 C115.6817402 24.43896396 120.36380746 12.22931457 125 0 C130.61 0 136.22 0 142 0 C141.30737657 4.15574058 140.77787582 6.99556289 139.29541016 10.74267578 C138.94112946 11.64653519 138.58684875 12.55039459 138.22183228 13.48164368 C137.83151825 14.45965439 137.44120422 15.4376651 137.0390625 16.4453125 C136.62562592 17.4948259 136.21218933 18.54433929 135.78622437 19.62565613 C134.40487472 23.12772911 133.015 26.62635233 131.625 30.125 C130.64537431 32.60292879 129.66619311 35.08102931 128.6875 37.55932617 C126.30733694 43.58295931 123.92036246 49.60387087 121.53067398 55.62373066 C119.53132212 60.66037918 117.53409876 65.69786718 115.53808594 70.73583984 C109.47469165 86.0386443 103.40166795 101.33755954 97.31343269 116.63049889 C94.35480561 124.06290153 91.40410738 131.49820978 88.48342896 138.94563293 C87.20871986 142.1955859 85.92816385 145.44321554 84.64672852 148.69052124 C84.10800072 150.06085192 83.57229867 151.43237777 83.0402832 152.80532837 C80.35559374 159.73314497 77.39928677 166.42084578 73.93359375 172.98828125 C73.45464409 173.89970634 73.45464409 173.89970634 72.96601868 174.82954407 C65.36062187 188.86698213 53.54686479 199.8143574 38.3984375 205.1328125 C32.67834406 206.59242255 26.89916972 207.11934736 21 207 C20 206 20 206 19.90234375 202.83984375 C19.91394531 201.55207031 19.92554688 200.26429688 19.9375 198.9375 C19.94652344 197.64714844 19.95554687 196.35679687 19.96484375 195.02734375 C19.97644531 194.02832031 19.98804688 193.02929688 20 192 C20.76183594 191.90203125 21.52367187 191.8040625 22.30859375 191.703125 C34.52771837 189.93356388 44.30240047 185.91577317 52.3203125 176.18359375 C56.48825918 170.42617588 60.03560041 164.43272156 63.1875 158.0625 C63.50348145 157.44826172 63.81946289 156.83402344 64.14501953 156.20117188 C65.52531073 153.24213732 66.13197785 151.50367896 65.29394531 148.30541992 C63.75589923 144.37643767 62.07069957 140.53958678 60.31640625 136.703125 C59.76598915 135.48976471 59.76598915 135.48976471 59.20445251 134.25189209 C57.99319932 131.5833447 56.77781806 128.91669829 55.5625 126.25 C54.70541353 124.36342461 53.84864813 122.47670333 52.9921875 120.58984375 C51.21234504 116.66935482 49.43112133 112.7494979 47.64892578 108.83007812 C43.9771363 100.75230851 40.32211022 92.66696851 36.66708374 84.581604 C34.71096485 80.25464425 32.75397582 75.92807819 30.796875 71.6015625 C30.40739182 70.74049896 30.01790863 69.87943542 29.61662292 68.99227905 C27.12316129 63.48051756 24.62746337 57.9697733 22.13037109 52.45965576 C20.41525285 48.6748361 18.70088621 44.88967621 16.98657227 41.10449219 C16.17818886 39.32014342 15.36944738 37.53595682 14.56030273 35.75195312 C12.37421911 30.93195037 10.19372446 26.10952305 8.02514648 21.28161621 C7.33266403 19.74039336 6.63878062 18.19979932 5.94360352 16.65979004 C4.9408996 14.43462274 3.9458984 12.20617486 2.953125 9.9765625 C2.65283386 9.31296722 2.35254272 8.64937195 2.04315186 7.96566772 C0.78542696 5.12054171 0 3.1493639 0 0 Z " fill="#2AA2E0" transform="translate(1858,395)"/>
<path d="M0 0 C12.02647262 9.66007774 18.97225108 22.75373616 21 38 C21.13787734 41.37921311 21.12643787 44.7546254 21.11352539 48.13623047 C21.11367142 49.1417244 21.11381744 50.14721832 21.1139679 51.18318176 C21.11327327 54.49453923 21.10550194 57.8058399 21.09765625 61.1171875 C21.09579047 63.41789723 21.09436732 65.71860736 21.09336853 68.01931763 C21.08955594 74.06584781 21.07973639 80.11235385 21.06866455 86.15887451 C21.05842338 92.33247552 21.05386511 98.50608044 21.04882812 104.6796875 C21.038113 116.78646892 21.02105168 128.89323245 21 141 C15.72 141 10.44 141 5 141 C4.99453156 139.14529839 4.99453156 139.14529839 4.98895264 137.25312805 C4.95189062 125.55768694 4.8939959 113.86250641 4.81609726 102.16726398 C4.77671479 96.15568824 4.74448104 90.14425695 4.72900391 84.13256836 C4.71377657 78.32278282 4.67922331 72.5133947 4.63169098 66.70378685 C4.61693972 64.49565284 4.60896261 62.28746207 4.60811615 60.07927895 C4.59594227 44.23449561 4.32571686 29.2300288 -6.93359375 16.87890625 C-15.9552293 8.11457225 -26.79173326 5.74371511 -39.05737305 5.7512207 C-51.47836993 5.95981302 -64.08895592 10.08895592 -73 19 C-82.96251545 31.1069134 -87.27724908 44.88332312 -87.31884766 60.39697266 C-87.32889328 61.27625427 -87.3389389 62.15553589 -87.34928894 63.0614624 C-87.37984854 65.92898992 -87.39707943 68.7964253 -87.4140625 71.6640625 C-87.43279611 73.66760028 -87.45237112 75.67113036 -87.4727478 77.6746521 C-87.52384338 82.91879714 -87.56358927 88.16296769 -87.60089111 93.40722656 C-87.64107306 98.77024531 -87.69210034 104.13315998 -87.7421875 109.49609375 C-87.83867915 119.99732248 -87.92316873 130.49861029 -88 141 C-93.28 141 -98.56 141 -104 141 C-104 92.16 -104 43.32 -104 -7 C-98.72 -7 -93.44 -7 -88 -7 C-87.67 0.59 -87.34 8.18 -87 16 C-84.69 13.03 -82.38 10.06 -80 7 C-59.54593865 -15.17349208 -24.42911649 -15.21813814 0 0 Z " fill="#2CAEDC" transform="translate(1243,402)"/>
<path d="M0 0 C8.30066411 6.61292698 16.74022172 15.11512668 19.25195312 25.72021484 C17.48548742 26.72791005 15.71361489 27.72613199 13.93945312 28.72021484 C12.95332031 29.27708984 11.9671875 29.83396484 10.95117188 30.40771484 C8.25195312 31.72021484 8.25195312 31.72021484 5.25195312 31.72021484 C3.89257812 29.77880859 3.89257812 29.77880859 2.50195312 27.15771484 C-4.52144433 15.03724012 -15.82250567 8.20995463 -29.06054688 4.22021484 C-46.50162263 0.17171643 -63.18346145 2.74842033 -78.74804688 11.75146484 C-93.27496954 21.28475784 -101.01313467 34.49881837 -105.35742188 51.04052734 C-108.12868568 70.05139707 -104.30482585 87.66656872 -92.86914062 103.28662109 C-82.66037902 115.47526374 -68.32602385 122.39970788 -52.74804688 124.72021484 C-36.38686002 126.07437203 -20.87173421 122.37721694 -7.66992188 112.39208984 C-1.65607672 107.16694569 3.04320629 101.47144697 7.25195312 94.72021484 C8.0228125 95.14173828 8.79367187 95.56326172 9.58789062 95.99755859 C10.59078125 96.54541016 11.59367188 97.09326172 12.62695312 97.65771484 C14.12355469 98.475625 14.12355469 98.475625 15.65039062 99.31005859 C17.17265659 100.13519075 18.70324095 100.94585876 20.25195312 101.72021484 C19.71220955 105.76118978 18.57586855 108.01865712 16.00195312 111.15771484 C15.04289062 112.32947266 15.04289062 112.32947266 14.06445312 113.52490234 C13.46632813 114.24935547 12.86820313 114.97380859 12.25195312 115.72021484 C11.13820313 117.23615234 11.13820313 117.23615234 10.00195312 118.78271484 C-1.02190947 131.69740177 -19.31877389 138.76720429 -35.74804688 140.72021484 C-57.79693057 142.0496668 -78.40483765 138.03654321 -95.74804688 123.72021484 C-96.52664063 123.11564453 -97.30523438 122.51107422 -98.10742188 121.88818359 C-111.67867433 110.77379581 -120.66764316 93.0339879 -122.74804688 75.72021484 C-124.33937685 52.29877021 -120.64322459 30.21449023 -104.85742188 11.95068359 C-78.39051089 -16.03562413 -32.16276703 -23.54709843 0 0 Z " fill="#2BA9DE" transform="translate(936.748046875,405.27978515625)"/>
<path d="M0 0 C0 13.53 0 27.06 0 41 C14.19 41 28.38 41 43 41 C43 45.95 43 50.9 43 56 C28.81 56 14.62 56 0 56 C0.04035086 69.55232326 0.09745859 83.1042934 0.18390274 96.65640259 C0.22337771 102.9494937 0.25556633 109.24244488 0.27099609 115.53564453 C0.28616219 121.61123883 0.32060786 127.68644842 0.36830902 133.76187134 C0.38312312 136.07740939 0.39104103 138.39300236 0.39188385 140.70858765 C0.39425505 143.95718189 0.42134896 147.20471429 0.45410156 150.453125 C0.4490712 151.40619034 0.44404083 152.35925568 0.43885803 153.34120178 C0.55154939 160.58636289 2.28124078 165.86930757 7.0625 171.375 C17.54278309 177.17260341 31.42124384 175.183952 43 175 C43 179.62 43 184.24 43 189 C36.9123595 190.2175281 31.12848176 190.2622757 24.9375 190.3125 C23.77283203 190.34150391 22.60816406 190.37050781 21.40820312 190.40039062 C9.31848067 190.4879485 -0.16465984 187.98513479 -8.93359375 179.44140625 C-14.08452931 173.35570734 -16.12954092 166.23932369 -16.12025452 158.33659363 C-16.12162918 157.42940582 -16.12300385 156.52221802 -16.12442017 155.58753967 C-16.11902725 154.11371071 -16.11902725 154.11371071 -16.11352539 152.61010742 C-16.11367142 151.56574524 -16.11381744 150.52138306 -16.1139679 149.44537354 C-16.11327209 145.99871737 -16.10549518 142.55211546 -16.09765625 139.10546875 C-16.09579089 136.71364878 -16.09436754 134.32182842 -16.09336853 131.93000793 C-16.08955264 125.63850853 -16.07973024 119.34703226 -16.06866455 113.05554199 C-16.05843051 106.63403639 -16.05386664 100.21252704 -16.04882812 93.79101562 C-16.03810716 81.19399863 -16.02051784 68.59700486 -16 56 C-26.89 56 -37.78 56 -49 56 C-49 51.05 -49 46.1 -49 41 C-38.11 41 -27.22 41 -16 41 C-16 28.79 -16 16.58 -16 4 C-3 0 -3 0 0 0 Z " fill="#2CB1DB" transform="translate(597,354)"/>
<path d="M0 0 C7.67597805 7.25728834 10.70988613 15.04095714 11.0625 25.5625 C10.87183168 36.15019969 7.06953176 44.1733102 -0.3125 51.75 C-7.99715717 57.84421555 -17.13082932 60.43345204 -26.8984375 59.50390625 C-35.96359829 57.92796291 -44.49544472 54.11944618 -49.9453125 46.453125 C-55.39240757 37.76935025 -57.33642104 29.98921039 -56.3125 19.75 C-54.11345759 10.35409151 -49.75710316 2.9161938 -41.8125 -2.625 C-28.61594413 -10.76802528 -12.04888469 -9.90133488 0 0 Z " fill="#FFFFFF" transform="translate(1815.3125,213.25)"/>
<path d="M0 0 C7.47103879 6.29719309 11.32590409 13.77865648 12.375 23.4609375 C12.73655212 33.87815784 10.29095281 42.02378307 3.76953125 50.1796875 C-2.55824789 56.68905853 -10.06428462 60.19051211 -19.11547852 60.38061523 C-32.7472535 60.3457746 -39.6476985 56.3523015 -49.25 46.75 C-54.33558963 38.75835915 -56.20422662 30.3880524 -55 21 C-52.47306122 10.3811786 -47.39981419 3.06797412 -38.24609375 -2.7734375 C-25.72824973 -9.60926884 -11.60497218 -7.88606837 0 0 Z " fill="#FFFFFF" transform="translate(1814,47)"/>
<path d="M0 0 C5.28 0 10.56 0 16 0 C16 70.95 16 141.9 16 215 C10.72 215 5.44 215 0 215 C0 144.05 0 73.1 0 0 Z " fill="#2DB6DA" transform="translate(1469,328)"/>
<path d="" fill="#231F20" transform="translate(0,0)"/>
</svg>
